<?xml version="1.0" encoding="utf-8"?>
<!-- Generator: Adobe Illustrator 17.0.0, SVG Export Plug-In . SVG Version: 6.00 Build 0)  -->
<!DOCTYPE svg PUBLIC "-//W3C//DTD SVG 1.1//EN" "http://www.w3.org/Graphics/SVG/1.1/DTD/svg11.dtd">
<svg version="1.1" id="Layer_1" xmlns="http://www.w3.org/2000/svg" xmlns:xlink="http://www.w3.org/1999/xlink" x="0px" y="0px"
	 width="1000px" height="1000px" viewBox="0 0 1000 1000" enable-background="new 0 0 1000 1000" xml:space="preserve">
<g>
	<g>
		<path fill="#72BF45" stroke="#FFFFFF" stroke-width="8" stroke-miterlimit="10" d="M810.045,609.915
			c0,8.026-6.507,14.533-14.533,14.533H204.488c-8.026,0-14.533-6.507-14.533-14.533V18.892c0-8.026,6.507-14.533,14.533-14.533
			h591.023c8.026,0,14.533,6.507,14.533,14.533V609.915z"/>
		<g>
			<path fill="#F7F9F9" stroke="#FFFFFF" stroke-width="8" stroke-miterlimit="10" d="M690.993,165.921
				c-2.907-10.9-4.844-16.956-4.844-16.956c-3.149-11.263-11.142-11.263-23.011-13.201l-64.31-8.114
				c-7.993-1.332-7.993-1.332-11.142-8.236c-10.537-23.738-13.807-37.545-25.312-37.545H437.628
				c-11.506,0-14.654,13.807-25.191,37.666c-3.149,6.782-3.149,6.782-11.142,8.236l-64.431,8.114
				c-11.748,1.938-20.226,3.028-23.374,14.291c0,0-1.453,4.966-4.481,15.744c-3.876,14.412-5.45,12.838,7.872,12.838H683.12
				C696.443,178.88,694.989,180.334,690.993,165.921z"/>
			<path fill="#F7F9F9" stroke="#FFFFFF" stroke-width="8" stroke-miterlimit="10" d="M649.451,217.515H350.549
				c-20.104,0-21.073,2.664-19.862,17.803l22.648,293.816c1.938,14.897,3.391,17.924,21.195,17.924h250.943
				c17.803,0,19.257-3.028,21.194-17.924l22.648-293.816C670.525,220.058,669.556,217.515,649.451,217.515z"/>
		</g>
		<g>
			<path fill="#72BF45" d="M572.443,292.517c-18.995-14.436-40.406-19.409-67.552-19.409c-20.583,0-38.196,4.213-52.149,13.607
				c-20.583,14.021-30.252,37.575-30.252,74.804h53.047c0-9.946-0.966-20.652,4.835-29.838c5.802-9.186,13.883-16.231,27.767-16.231
				c14.09,0,21.343,4.075,28.181,12.502c5.802,7.183,8.013,15.748,8.013,24.865c0,7.875-4.006,15.127-8.772,21.689
				c-2.624,3.868-6.079,7.321-10.43,10.637c0,0-28.665,17.061-38.75,33.223c-7.528,12.018-10.223,27.076-10.844,45.103
				c-0.069,1.313,0.414,4.006,4.973,4.006c4.49,0,38.679,0,42.686,0s4.835-3.039,4.904-4.283c0.276-6.562,1.104-16.647,2.279-20.445
				c2.279-7.183,6.7-13.469,13.607-18.857l14.297-9.877c12.917-10.085,23.209-18.304,27.767-24.796
				c7.806-10.637,13.262-23.761,13.262-39.302C599.311,324.565,589.987,305.847,572.443,292.517z M501.231,494.964
				c-17.889-0.552-32.671,11.88-33.292,31.289c-0.552,19.478,13.469,32.257,31.427,32.809c18.649,0.552,33.085-11.466,33.637-30.875
				C533.555,508.778,519.879,495.517,501.231,494.964z"/>
		</g>
	</g>
	<text transform="matrix(1 0 0 1 189.134 920.4799)" fill="#72BF45" font-family="'RobotoSlab-Bold'" font-size="250.7004">Aliga</text>
	
		<text transform="matrix(1 0 0 1 189.134 920.4799)" fill="none" stroke="#FFFFFF" stroke-miterlimit="10" font-family="'RobotoSlab-Bold'" font-size="250.7004">Aliga</text>
</g>
</svg>
