<?xml version="1.0" encoding="utf-8"?>
<!-- Generator: Adobe Illustrator 17.0.0, SVG Export Plug-In . SVG Version: 6.00 Build 0)  -->
<!DOCTYPE svg PUBLIC "-//W3C//DTD SVG 1.1//EN" "http://www.w3.org/Graphics/SVG/1.1/DTD/svg11.dtd">
<svg version="1.1" id="Layer_1" xmlns="http://www.w3.org/2000/svg" xmlns:xlink="http://www.w3.org/1999/xlink" x="0px" y="0px"
	 width="1280px" height="720px" viewBox="0 0 1280 720" enable-background="new 0 0 1280 720" xml:space="preserve">
<rect fill="#F7F7F7" width="1280" height="720"/>
<g>
	<g>
		<path fill="#70BF44" stroke="#FFFFFF" stroke-width="8" stroke-miterlimit="10" d="M843.443,439.162
			c0,5.266-4.27,9.536-9.536,9.536H446.094c-5.266,0-9.536-4.27-9.536-9.536V51.35c0-5.266,4.27-9.536,9.536-9.536h387.812
			c5.266,0,9.536,4.27,9.536,9.536V439.162z"/>
		<g>
			<path fill="#F7F8F8" stroke="#FFFFFF" stroke-width="8" stroke-miterlimit="10" d="M765.324,147.826
				c-1.907-7.152-3.179-11.126-3.179-11.126c-2.066-7.391-7.311-7.391-15.099-8.662l-42.198-5.324
				c-5.245-0.874-5.245-0.874-7.311-5.404c-6.914-15.576-9.06-24.636-16.609-24.636h-81.854c-7.55,0-9.616,9.06-16.53,24.715
				c-2.066,4.45-2.066,4.45-7.311,5.404l-42.278,5.324c-7.709,1.272-13.271,1.987-15.338,9.377c0,0-0.954,3.258-2.94,10.331
				c-2.543,9.457-3.576,8.424,5.166,8.424h240.316C768.9,156.329,767.946,157.283,765.324,147.826z"/>
			<path fill="#F7F8F8" stroke="#FFFFFF" stroke-width="8" stroke-miterlimit="10" d="M738.066,181.68H541.934
				c-13.192,0-13.828,1.748-13.033,11.682l14.861,192.794c1.271,9.775,2.225,11.762,13.907,11.762h164.661
				c11.682,0,12.636-1.987,13.907-11.762l14.861-192.794C751.893,183.349,751.258,181.68,738.066,181.68z"/>
		</g>
		<g>
			<path fill="#70BF44" d="M687.535,230.894c-12.464-9.473-26.513-12.736-44.326-12.736c-13.506,0-25.063,2.765-34.219,8.928
				c-13.506,9.2-19.851,24.655-19.851,49.084h34.808c0-6.526-0.634-13.551,3.172-19.579c3.807-6.028,9.11-10.651,18.22-10.651
				c9.246,0,14.005,2.674,18.492,8.204c3.807,4.713,5.258,10.333,5.258,16.316c0,5.167-2.629,9.926-5.756,14.231
				c-1.722,2.538-3.989,4.804-6.844,6.98c0,0-18.809,11.195-25.426,21.8c-4.94,7.886-6.708,17.766-7.116,29.595
				c-0.045,0.861,0.272,2.629,3.263,2.629c2.946,0,25.38,0,28.009,0c2.629,0,3.172-1.994,3.218-2.81
				c0.181-4.306,0.725-10.923,1.496-13.415c1.496-4.713,4.396-8.838,8.928-12.373l9.381-6.481
				c8.475-6.617,15.229-12.01,18.22-16.271c5.122-6.98,8.702-15.591,8.702-25.789C705.165,251.923,699.047,239.641,687.535,230.894z
				 M640.807,363.734c-11.739-0.362-21.438,7.795-21.845,20.531c-0.362,12.781,8.838,21.166,20.622,21.528
				c12.237,0.362,21.71-7.523,22.072-20.259C662.018,372.798,653.044,364.097,640.807,363.734z"/>
		</g>
	</g>
	
		<text transform="matrix(1 0 0 1 381.3218 640.1271)" fill="#70BF44" stroke="#FFFFFF" stroke-miterlimit="10" font-family="'RobotoSlab-Bold'" font-size="207">Aliga</text>
</g>
</svg>
