<?xml version="1.0" encoding="utf-8"?>
<!-- Generator: Adobe Illustrator 17.0.0, SVG Export Plug-In . SVG Version: 6.00 Build 0)  -->
<!DOCTYPE svg PUBLIC "-//W3C//DTD SVG 1.1//EN" "http://www.w3.org/Graphics/SVG/1.1/DTD/svg11.dtd">
<svg version="1.1" id="Layer_1" xmlns="http://www.w3.org/2000/svg" xmlns:xlink="http://www.w3.org/1999/xlink" x="0px" y="0px"
	 width="512px" height="512px" viewBox="0 0 512 512" enable-background="new 0 0 512 512" xml:space="preserve">
<path fill="#66CC33" d="M512,500c0,6.627-5.373,12-12,12H12c-6.627,0-12-5.373-12-12V12C0,5.373,5.373,0,12,0h488
	c6.627,0,12,5.373,12,12V500z"/>
<g>
	<path fill="#F8F8F8" stroke="#FFFFFF" stroke-width="8" stroke-miterlimit="10" d="M413.7,133.4c-2.4-9-4-14-4-14
		c-2.6-9.3-9.2-9.3-19-10.9l-53.1-6.7c-6.6-1.1-6.6-1.1-9.2-6.8c-8.7-19.6-11.4-31-20.9-31h-103c-9.5,0-12.1,11.4-20.8,31.1
		c-2.6,5.6-2.6,5.6-9.2,6.8l-53.2,6.7c-9.7,1.6-16.7,2.5-19.3,11.8c0,0-1.2,4.1-3.7,13c-3.2,11.9-4.5,10.6,6.5,10.6h302.4
		C418.2,144.1,417,145.3,413.7,133.4z"/>
	<path fill="#F8F8F8" stroke="#FFFFFF" stroke-width="8" stroke-miterlimit="10" d="M379.4,176H132.6c-16.6,0-17.4,2.2-16.4,14.7
		l18.7,242.6c1.6,12.3,2.8,14.8,17.5,14.8h207.2c14.7,0,15.9-2.5,17.5-14.8l18.7-242.6C396.8,178.1,396,176,379.4,176z"/>
</g>
<g>
	<path fill="#66CC33" d="M315.815,237.928c-15.684-11.92-33.363-16.026-55.777-16.026c-16.995,0-31.538,3.479-43.059,11.235
		C199.984,244.714,192,264.162,192,294.902h43.8c0-8.212-0.798-17.052,3.992-24.637c4.791-7.585,11.463-13.402,22.927-13.402
		c11.634,0,17.623,3.365,23.269,10.323c4.791,5.931,6.616,13.003,6.616,20.531c0,6.502-3.308,12.49-7.243,17.908
		c-2.167,3.194-5.019,6.045-8.612,8.783c0,0-23.668,14.087-31.995,27.432c-6.216,9.923-8.441,22.356-8.954,37.241
		c-0.057,1.084,0.342,3.308,4.106,3.308c3.707,0,31.937,0,35.245,0c3.308,0,3.992-2.509,4.049-3.536
		c0.228-5.418,0.912-13.745,1.882-16.881c1.882-5.931,5.532-11.121,11.235-15.57l11.805-8.155
		c10.665-8.327,19.163-15.113,22.927-20.474c6.445-8.783,10.95-19.619,10.95-32.451C338,264.39,330.301,248.935,315.815,237.928z
		 M257.016,405.086c-14.771-0.456-26.976,9.809-27.489,25.835c-0.456,16.083,11.121,26.634,25.949,27.09
		c15.398,0.456,27.318-9.467,27.774-25.493S272.414,405.543,257.016,405.086z"/>
</g>
</svg>
